<svg width="160" height="431" viewBox="0 0 160 431" fill="none" xmlns="http://www.w3.org/2000/svg">
<path opacity="0.1" d="M74.364 430.667C115.434 430.667 148.728 425.533 148.728 419.199C148.728 412.866 115.434 407.731 74.364 407.731C33.2939 407.731 0 412.866 0 419.199C0 425.533 33.2939 430.667 74.364 430.667Z" fill="#42A76D"/>
<path d="M121.36 421.42C119.155 422.233 107.196 423.618 103.853 423.23C100.51 422.841 96.084 421.214 94.8248 419.089C93.5655 416.964 86.5062 413.755 84.6135 413.96C83.8377 413.982 83.0635 413.878 82.3239 413.652C81.0182 413.273 79.7429 412.802 78.5081 412.245C78.3356 411.322 78.3642 410.373 78.592 409.461C78.636 409.277 78.692 409.096 78.7599 408.919C79.2053 407.716 80.1268 406.732 81.3242 406.178L81.5989 406.053C82.128 405.834 82.6809 405.672 83.2474 405.57C89.246 404.463 113.996 406.684 113.996 406.684C113.996 406.684 114.69 407.878 115.644 409.358C116.835 411.19 118.453 413.425 119.674 414.268C121.026 415.378 121.944 416.898 122.276 418.577C122.566 419.874 122.353 421.061 121.36 421.42Z" fill="white"/>
<path opacity="0.1" d="M121.361 421.42C119.155 422.233 107.204 423.618 103.861 423.23C100.518 422.841 96.092 421.207 94.8251 419.09C93.5582 416.972 86.5141 413.755 84.6214 413.96C82.7287 414.165 78.516 412.246 78.516 412.246C78.516 412.246 77.8597 409.314 79.7676 407.314L83.5835 409.915C83.5835 409.915 93.7948 412.956 95.6875 415.777C97.5802 418.599 101.03 420.174 106.013 420.46C109.738 420.694 118.293 419.302 122.299 418.606C122.567 419.874 122.361 421.061 121.361 421.42Z" fill="black"/>
<path d="M84.8269 425.157C80.3253 425.073 75.8228 425.276 71.3492 425.765C64.183 426.571 58.711 423.567 57.757 422.328C56.803 421.09 51.8653 416.906 48.0723 415.44C46.2178 414.751 45.7827 412.509 45.8667 410.413C45.8667 410.303 45.8667 410.179 45.8667 410.069C45.937 408.741 46.1415 407.423 46.4772 406.134L76.1725 405.526L78.7444 408.874L79.1413 409.387L80.7058 411.432C80.7058 411.432 81.4155 412.326 82.3466 413.63C83.9188 415.829 86.1167 419.075 86.7043 421.222C87.6431 424.658 84.8269 425.157 84.8269 425.157Z" fill="white"/>
<path opacity="0.1" d="M84.8269 425.157C80.3253 425.073 75.8228 425.276 71.3492 425.765C64.1906 426.571 58.711 423.567 57.7646 422.328C56.8183 421.09 51.8653 416.869 48.0723 415.455C46.2178 414.766 45.7827 412.524 45.8667 410.428C47.9883 410.904 52.4453 412.121 54.193 414.238C56.4825 417.067 60.5808 421.823 66.4038 422.123C71.105 422.365 82.5526 421.559 86.7501 421.236C87.6507 424.658 84.8269 425.157 84.8269 425.157Z" fill="black"/>
<path d="M133.052 243.575L129.679 265.954L125.756 280.786L120.139 308.822V338.499C120.139 338.499 123.787 397.546 122.383 399.158C120.979 400.77 115.644 409.952 114.24 409.417C112.836 408.882 101.327 406.991 97.6713 408.603C94.0156 410.215 81.6445 408.874 81.6445 408.874C81.6445 408.874 81.3622 385.961 79.9579 379.49C78.5537 373.02 82.484 345.519 82.484 345.519L83.8883 330.695C83.8883 330.695 85.8573 320.714 84.1707 318.018C82.484 315.321 86.6968 304.828 86.6968 304.828C86.6968 304.828 84.7354 298.885 85.3002 295.382C85.8649 291.88 86.6968 278.668 86.6968 278.668C86.6968 278.668 85.3002 287.842 81.4003 293.228C77.5005 298.614 77.9966 346.882 77.9966 346.882L78.2713 388.65C85.3002 410.765 78.2713 408.603 78.2713 408.603C78.2713 408.603 51.6059 414.268 46.2179 409.681C40.8298 405.093 42.3715 376.222 42.3715 376.222C42.3715 376.222 41.8143 353.037 44.0581 346.032C46.3018 339.026 47.0116 313.138 47.0116 313.138C47.0116 313.138 46.8666 261.367 47.0116 257.872C47.1184 254.941 47.0116 228.7 47.0116 220.5C47.0116 218.976 47.0116 218.075 47.0116 218.075L50.2322 210.395L88.391 205.808H106.646C106.646 205.808 134.121 212.007 136.96 214.682C137.02 214.727 137.072 214.781 137.112 214.843C138.952 217.43 133.052 243.575 133.052 243.575Z" fill="#42A76D"/>
<path d="M79.1034 5.7096C75.0815 10.0256 73.3414 16.1443 68.6555 19.7935C65.8089 21.9918 62.2067 23.0397 58.8945 24.5346C55.5823 26.0294 52.3006 28.3083 51.3161 31.6938C50.2172 35.5042 52.3388 39.3952 53.453 43.2056C54.6054 47.148 54.6741 51.2661 54.7428 55.3917C54.8191 60.3819 54.903 65.372 54.8115 70.3622C54.6741 78.137 54.0025 86.2708 49.7058 92.8584C65.2212 97.5994 81.7211 98.2443 97.9921 98.8525C101.119 99.0667 104.26 98.9906 107.372 98.6253C110.068 98.1095 112.735 97.4613 115.362 96.6835C120.556 95.3639 125.909 94.7061 131.282 94.727C133.625 94.727 136.014 94.8662 138.273 94.28C140.532 93.6938 142.707 92.1916 143.317 90.0226C143.859 88.0734 143.065 85.9996 142.027 84.2483C140.135 81.0534 137.448 78.3861 135.418 75.2352C133.346 71.9069 132.116 68.1579 131.829 64.29C131.541 60.4221 132.203 56.5434 133.762 52.9662C135.563 48.9433 138.463 45.4406 140.234 41.4103C142.047 37.0832 142.53 32.3472 141.623 27.7647C140.717 23.1822 138.46 18.9457 135.121 15.5581C128.962 9.50537 120.124 7.16049 111.668 5.91477C108.108 5.51096 104.711 4.25075 101.793 2.2509C98.5492 0.199137 94.3441 -0.299161 90.5434 0.155159C86.1589 0.626889 82.0979 2.59863 79.1034 5.7096Z" fill="#3F3D56"/>
<path d="M115.927 81.4052C115.362 82.6216 112.981 93.1296 112.416 94.2068C111.851 95.2839 108.768 112.526 108.486 113.493C108.203 114.461 88.1623 109.448 88.1623 109.448L76.0965 99.7392L63.6949 87.8903C63.6949 87.8903 63.3286 77.1991 72.4638 73.7697C73.0847 73.5356 73.7223 73.3446 74.3717 73.1982C85.4531 70.6408 84.3388 38.2888 84.3388 38.2888L107.082 47.7196C107.082 47.7196 102.869 66.5959 103.014 70.2378C103.052 71.4615 104.052 72.2236 105.357 72.6852C107.374 73.2364 109.475 73.4544 111.569 73.3301C111.569 73.3301 116.491 80.1961 115.927 81.4052Z" fill="#FBBEBE"/>
<path opacity="0.1" d="M35.5029 126.163L29.0464 132.231C29.0464 132.231 40.6925 145.171 49.6522 145.977C58.6119 146.783 64.3892 136.136 64.3892 136.136L56.6353 124.412L35.5029 126.163Z" fill="black"/>
<path d="M96.8314 57.8098C109.236 57.8098 119.292 48.1546 119.292 36.2442C119.292 24.3339 109.236 14.6786 96.8314 14.6786C84.4269 14.6786 74.3711 24.3339 74.3711 36.2442C74.3711 48.1546 84.4269 57.8098 96.8314 57.8098Z" fill="#FBBEBE"/>
<path d="M95.1453 99.6147L71.9295 73.9676C70.5705 73.1347 69.0173 72.639 67.4094 72.5252C65.8015 72.4113 64.1894 72.6829 62.7179 73.3154C57.5207 75.4771 51.0642 77.2284 49.3775 78.3056C47.6909 79.3828 41.3718 86.051 41.3718 86.051L60.1918 133.322L51.9037 164.458C51.9037 164.458 53.1706 180.366 49.9423 186.163C47.9767 189.869 47.0558 194.004 47.2712 198.158C47.2712 198.158 48.2557 205.845 47.1338 209.882C46.4783 212.582 46.4288 215.385 46.9888 218.104C46.9888 218.104 113.683 220.801 122.101 218.104C126.975 216.513 132.013 215.43 137.128 214.873C137.128 214.873 135.601 187.907 134.075 181.436C132.549 174.966 135.342 150.301 135.342 150.301L133.518 123.877L144.462 96.7642C144.462 96.7642 138.532 79.3828 132.35 77.6315C132.35 77.6315 121.124 75.0668 118.735 73.8577C116.346 72.6486 109.325 71.5641 109.325 71.5641L105.639 72.7512L95.1453 99.6147Z" fill="#42A76D"/>
<path d="M129.218 121.376L80.3658 118.187C79.1294 118.106 78.059 119.003 77.975 120.19L72.7302 194.249C72.6461 195.436 73.5802 196.464 74.8165 196.544L123.669 199.734C124.905 199.815 125.976 198.918 126.06 197.731L131.305 123.672C131.389 122.485 130.455 121.457 129.218 121.376Z" fill="#3F3D56"/>
<path d="M127.606 127.181L81.1445 124.148L76.3699 191.569L122.832 194.602L127.606 127.181Z" fill="white"/>
<path opacity="0.1" d="M122.067 184.75L116.044 184.357L115.669 189.65L121.692 190.043L122.067 184.75Z" fill="black"/>
<path opacity="0.1" d="M116.126 171.976L85.2961 169.963L84.9213 175.256L115.751 177.269L116.126 171.976Z" fill="black"/>
<path opacity="0.1" d="M121.856 124.661L89.7544 122.565L89.1781 130.702L121.28 132.798L121.856 124.661Z" fill="black"/>
<path opacity="0.1" d="M97.9537 215.803C97.9537 215.803 97.6713 255.71 86.7197 278.624C86.7197 278.624 99.9227 248.426 99.9227 247.217C99.9227 246.008 107.219 233.331 105.265 229.558C103.311 225.784 97.9537 215.803 97.9537 215.803Z" fill="black"/>
<path d="M98.5492 30.045C98.1285 26.5105 99.0292 22.9475 101.091 19.9914C100.404 25.8536 105.006 31.9063 111.065 33.0348C110.808 32.8222 110.624 32.5393 110.538 32.2238C110.452 31.9083 110.468 31.5752 110.585 31.2688C112.149 32.9688 113.347 34.9766 115.118 36.4788C116.888 37.981 119.544 38.8677 121.628 37.7978C124.459 36.3323 124.49 32.4705 123.757 29.4735C122.185 23.0753 118.959 17.1605 114.377 12.2753C112.956 10.6115 111.164 9.27443 109.134 8.36226C107.665 7.84037 106.121 7.53884 104.555 7.46827C100.221 7.14585 95.7178 7.50492 91.8333 9.37349C89.6487 10.5239 87.6014 11.8999 85.7278 13.477L75.0434 21.8453C74.0137 22.5546 73.1332 23.4447 72.4486 24.4686C71.9891 25.323 71.7139 26.2576 71.6396 27.2165C71.3672 29.9561 71.8957 32.7143 73.1656 35.1815C74.4355 37.6486 76.3966 39.727 78.8287 41.1832C78.7793 39.0175 79.4006 36.8865 80.6138 35.0601C81.8271 33.2338 83.5778 31.7944 85.6439 30.9244C85.9666 31.1853 86.228 31.509 86.4108 31.874C86.5937 32.239 86.6938 32.6372 86.7047 33.0421L88.9484 29.2024C89.2813 28.4998 89.8094 27.8989 90.4748 27.4657C91.8638 26.7329 93.5962 27.5976 94.7791 28.6308C95.962 29.664 97.1144 30.9464 98.7018 31.1149L98.7629 25.3699" fill="#3F3D56"/>
<path d="M109.188 166.07C107.226 165.117 74.7912 169.975 74.7912 169.975C74.7912 169.975 69.449 168.51 56.536 166.473C43.6231 164.436 42.7988 152.316 42.7988 152.316L41.387 128.053L45.7447 124.39L64.412 136.114C64.412 136.114 64.702 142.042 64.412 143.112C64.2289 143.845 63.7404 144.717 63.7862 145.31C63.8004 145.471 63.8694 145.623 63.9825 145.742C64.0957 145.861 64.2467 145.941 64.412 145.97C65.6789 146.278 82.942 148.96 82.942 148.96C82.942 148.96 122.955 146.329 132.93 159.27C133.72 160.22 134.318 161.303 134.693 162.465C137.166 171.309 110.966 166.912 109.188 166.07Z" fill="#FBBEBE"/>
<path opacity="0.1" d="M134.716 162.516C133.19 163.168 132.244 163.637 132.244 163.637C132.244 163.637 117.926 163.234 109.883 160.435C101.839 157.636 92.0623 158.134 92.0623 158.134C92.0623 158.134 58.5436 152.594 63.7408 145.362C63.755 145.522 63.824 145.674 63.9371 145.793C64.0503 145.913 64.2013 145.993 64.3666 146.021C65.6335 146.329 82.8966 149.011 82.8966 149.011C82.8966 149.011 122.91 146.38 132.885 159.321C133.699 160.266 134.321 161.35 134.716 162.516Z" fill="black"/>
<path d="M148.636 119.824C148.636 119.824 150.605 133.168 150.743 134.253C150.88 135.337 151.59 148.403 150.743 149.89C149.896 151.378 148.636 153.796 148.636 153.796C148.636 153.796 150.041 156.624 144.424 157.709C138.807 158.793 132.213 162.018 132.213 162.018C132.213 162.018 117.888 161.615 109.89 158.786C101.892 155.958 92.0619 156.492 92.0619 156.492C92.0619 156.492 49.5148 149.48 67.77 140.921C86.0252 132.362 98.9382 143.955 98.9382 143.955L119.292 142.746C119.292 142.746 126.878 138.29 128.984 138.701C130.472 138.883 131.982 138.648 133.335 138.027L133.48 123.869L148.636 119.824Z" fill="#FBBEBE"/>
<path opacity="0.1" d="M45.4243 87.0696L41.3489 86.8644L29.0007 133.029C29.0007 133.029 42.3334 129.79 48.0802 133.029C53.8269 136.268 64.3664 136.935 64.3664 136.935L60.436 100.135L45.4243 87.0696Z" fill="black"/>
<path d="M45.4243 86.2561L41.3489 86.051L29.0007 132.216C29.0007 132.216 42.3334 128.977 48.0802 132.216C53.8269 135.455 64.3664 136.122 64.3664 136.122L60.436 99.3215L45.4243 86.2561Z" fill="#42A76D"/>
<path opacity="0.1" d="M138.814 96.3683L144.423 97.5847C144.423 97.5847 158.748 117.37 159.87 118.476C160.992 119.583 154.528 123.606 151.864 123.606C149.201 123.606 136.143 125.071 132.35 128.456C128.557 131.842 130.137 114.805 130.137 114.417C130.137 114.028 134.846 103.278 134.846 103.278L138.814 96.3683Z" fill="black"/>
<path d="M138.814 95.5624L144.423 96.7715C144.423 96.7715 158.748 116.593 159.87 117.67C160.992 118.747 154.528 122.8 151.864 122.8C149.201 122.8 136.143 124.265 132.35 127.651C128.557 131.036 130.137 113.999 130.137 113.611C130.137 113.222 134.876 102.436 134.876 102.436L138.814 95.5624Z" fill="#42A76D"/>
</svg>
