<svg width="70" height="70" viewBox="0 0 70 70" fill="none" xmlns="http://www.w3.org/2000/svg">
<path d="M59.9958 43.3416L64.1666 39.1708L59.9958 34.9999L49.5833 45.4124L24.5874 20.4166L34.9999 10.0041L30.8291 5.83325L26.6583 10.0041L22.4874 5.83325L16.2458 12.0749L12.0749 7.90409L7.90409 12.0749L12.0749 16.2458L5.83325 22.4874L10.0041 26.6583L5.83325 30.8291L10.0041 34.9999L20.4166 24.5874L45.4124 49.5833L34.9999 59.9958L39.1708 64.1666L43.3416 59.9958L47.5124 64.1666L53.7541 57.9249L57.9249 62.0958L62.0958 57.9249L57.9249 53.7541L64.1666 47.5124L59.9958 43.3416Z" fill="#2ECC71"/>
</svg>
