<svg width="50" height="50" viewBox="0 0 50 50" fill="none" xmlns="http://www.w3.org/2000/svg">
<path fill-rule="evenodd" clip-rule="evenodd" d="M40.501 9.48252C38.4786 7.45915 36.0759 5.85578 33.4314 4.7647C30.7868 3.67363 27.9526 3.1164 25.0918 3.1251C13.0859 3.1251 3.3125 12.8497 3.30762 24.8048C3.30231 28.6115 4.30576 32.3517 6.21582 35.6446L3.125 46.8751L14.6729 43.8605C17.8694 45.5921 21.4476 46.4984 25.083 46.4972H25.0918C37.0967 46.4972 46.8691 36.7716 46.875 24.8175C46.8823 21.9665 46.3225 19.1425 45.2282 16.5098C44.1339 13.8771 42.527 11.4884 40.501 9.48252V9.48252ZM25.0918 42.838H25.084C21.8431 42.8389 18.6612 41.9716 15.8691 40.3263L15.208 39.9356L8.35547 41.7247L10.1846 35.0753L9.75391 34.3917C7.94178 31.5227 6.98169 28.1981 6.98535 24.8048C6.98535 14.8702 15.1113 6.78721 25.0986 6.78721C29.8896 6.77865 34.4879 8.67347 37.8819 12.0549C41.276 15.4363 43.1879 20.0275 43.1973 24.8185C43.1934 34.754 35.0713 42.838 25.0918 42.838ZM35.0225 29.3429C34.4785 29.0714 31.7998 27.7608 31.3037 27.5802C30.8076 27.3995 30.4414 27.3087 30.0791 27.8517C29.7168 28.3946 28.6729 29.6095 28.3555 29.9757C28.0381 30.3419 27.7207 30.3819 27.1768 30.1104C26.6328 29.839 24.8779 29.2677 22.7988 27.422C21.1807 25.9854 20.0889 24.212 19.7715 23.67C19.4541 23.128 19.7373 22.8341 20.0098 22.5646C20.2549 22.3214 20.5537 21.9317 20.8262 21.6153C21.0986 21.2989 21.1895 21.0724 21.3701 20.711C21.5508 20.3497 21.4609 20.0333 21.3252 19.7628C21.1895 19.4923 20.1006 16.8253 19.6475 15.7403C19.2051 14.6837 18.7568 14.8272 18.4229 14.8106C18.1055 14.795 17.7393 14.7911 17.3789 14.7911C17.1034 14.7983 16.8324 14.8622 16.5827 14.9788C16.333 15.0954 16.1101 15.2622 15.9277 15.4688C15.4287 16.0118 14.0225 17.3243 14.0225 19.9884C14.0225 22.6524 15.9756 25.2306 16.2451 25.5919C16.5146 25.9532 20.083 31.4249 25.543 33.7716C26.5568 34.2058 27.5928 34.5865 28.6465 34.9122C29.9502 35.3243 31.1367 35.2667 32.0742 35.1271C33.1201 34.9718 35.2969 33.8165 35.749 32.5509C36.2012 31.2853 36.2021 30.2013 36.0664 29.9757C35.9307 29.7501 35.5674 29.6134 35.0225 29.3429Z" fill="black"/>
</svg>
