<svg width="562" height="445" viewBox="0 0 562 445" fill="none" xmlns="http://www.w3.org/2000/svg">
<g clip-path="url(#clip0)">
<path d="M52.1934 389.482L46.0613 435.342H58.3255L52.1934 389.482Z" fill="#3F3D56"/>
<path d="M45.7386 393.358L39.6064 439.217H51.8707L45.7386 393.358Z" fill="#3F3D56"/>
<path d="M37.9927 393.358L31.8606 439.217H44.1248L37.9927 393.358Z" fill="#3F3D56"/>
<path d="M421.412 375.272L415.28 421.132H427.544L421.412 375.272Z" fill="#3F3D56"/>
<path d="M429.803 375.272L423.671 421.132H435.935L429.803 375.272Z" fill="#3F3D56"/>
<path d="M436.258 384.961L430.126 430.82H442.39L436.258 384.961Z" fill="#3F3D56"/>
<path d="M444.649 384.961L438.517 430.82H450.782L444.649 384.961Z" fill="#3F3D56"/>
<path d="M480.797 392.066L474.665 437.925H486.929L480.797 392.066Z" fill="#3F3D56"/>
<path d="M489.188 392.066L483.056 437.925H495.32L489.188 392.066Z" fill="#3F3D56"/>
<path d="M500.826 440.509H490.459L490.808 437.925L492.99 421.61L493.061 421.048L495.643 401.755L498.47 422.908L499.838 433.133L500.826 440.509Z" fill="#3F3D56"/>
<path d="M509.217 440.509H498.851L499.838 433.133L501.123 423.547L504.034 401.755L507.145 425.033V425.039L508.056 431.841L509.217 440.509Z" fill="#3F3D56"/>
<path d="M517.951 440.509H506.9L508.056 431.841L508.908 425.479L512.426 399.171L516.195 427.345L516.621 430.549L517.951 440.509Z" fill="#3F3D56"/>
<path d="M526.342 440.509H515.292L516.621 430.549L517.021 427.559L520.817 399.171L524.69 428.153L524.896 429.664L526.342 440.509Z" fill="#3F3D56"/>
<path d="M531.506 440.509H523.037L524.503 429.561L524.69 428.153L527.272 408.859L530.247 431.137L531.467 440.238L531.506 440.509Z" fill="#3F3D56"/>
<path d="M539.897 440.509H531.429L531.467 440.238L532.597 431.789L535.663 408.859L538.974 433.604L539.897 440.509Z" fill="#3F3D56"/>
<path d="M61.8757 123.368C95.9207 123.368 123.52 95.7514 123.52 61.6842C123.52 27.6169 95.9207 0 61.8757 0C27.8306 0 0.231689 27.6169 0.231689 61.6842C0.231689 95.7514 27.8306 123.368 61.8757 123.368Z" fill="#F29500"/>
<path d="M561.61 445C402.671 394.653 258.549 397.335 165.634 408.451C64.9717 420.494 1.09651 444.744 0.463313 444.987L0 443.781C0.635082 443.537 64.6606 419.23 165.48 407.168C224.785 400.082 284.621 398.55 344.209 402.593C418.184 407.604 491.298 421.426 562 443.769L561.61 445Z" fill="#3F3D56"/>
<path d="M456.268 234.432C514.555 234.432 561.805 187.151 561.805 128.827C561.805 70.5021 514.555 23.2207 456.268 23.2207C397.982 23.2207 350.731 70.5021 350.731 128.827C350.731 187.151 397.982 234.432 456.268 234.432Z" fill="#2ECC71"/>
<path opacity="0.2" d="M534.773 58.2902C544.618 81.3326 545.953 107.127 538.541 131.064C531.129 155.001 515.452 175.521 494.313 188.957C473.173 202.393 447.948 207.869 423.145 204.407C398.341 200.946 375.576 188.772 358.917 170.06C364.931 184.138 373.931 196.74 385.295 206.991C396.659 217.243 410.114 224.9 424.728 229.432C439.343 233.963 454.768 235.261 469.933 233.236C485.099 231.21 499.643 225.91 512.558 217.701C525.473 209.492 536.451 198.572 544.729 185.697C553.008 172.822 558.391 158.299 560.504 143.136C562.617 127.973 561.41 112.531 556.967 97.8803C552.524 83.2299 544.951 69.7212 534.773 58.2902Z" fill="black"/>
<path d="M456.558 128.827H456.848L462.067 428.237H451.05L456.558 128.827Z" fill="#3F3D56"/>
<path d="M475.775 291.914L473.343 287.293L455.898 296.483L458.329 301.104L475.775 291.914Z" fill="#3F3D56"/>
<path d="M204.304 430.771C204.304 430.771 204.75 421.425 213.888 422.511L204.304 430.771Z" fill="#3F3D56"/>
<path d="M201.722 421.877C204.248 421.877 206.296 419.828 206.296 417.301C206.296 414.773 204.248 412.724 201.722 412.724C199.197 412.724 197.149 414.773 197.149 417.301C197.149 419.828 199.197 421.877 201.722 421.877Z" fill="#2ECC71"/>
<path d="M202.269 425.007H200.978V434.05H202.269V425.007Z" fill="#3F3D56"/>
<path d="M370.84 432.709C370.84 432.709 371.286 423.363 380.423 424.449L370.84 432.709Z" fill="#3F3D56"/>
<path d="M368.258 423.815C370.784 423.815 372.831 421.766 372.831 419.238C372.831 416.711 370.784 414.662 368.258 414.662C365.732 414.662 363.684 416.711 363.684 419.238C363.684 421.766 365.732 423.815 368.258 423.815Z" fill="#2ECC71"/>
<path d="M368.805 426.945H367.514V435.988H368.805V426.945Z" fill="#3F3D56"/>
<path d="M96.5078 416.561C96.5078 416.561 96.9536 407.215 106.091 408.301L96.5078 416.561Z" fill="#3F3D56"/>
<path d="M93.926 407.667C96.4518 407.667 98.4994 405.618 98.4994 403.091C98.4994 400.563 96.4518 398.514 93.926 398.514C91.4001 398.514 89.3525 400.563 89.3525 403.091C89.3525 405.618 91.4001 407.667 93.926 407.667Z" fill="#2ECC71"/>
<path d="M94.4726 410.797H93.1816V419.84H94.4726V410.797Z" fill="#3F3D56"/>
<path d="M166.866 404.289C166.866 404.289 167.312 394.943 176.45 396.029L166.866 404.289Z" fill="#3F3D56"/>
<path d="M164.284 395.395C166.81 395.395 168.857 393.346 168.857 390.818C168.857 388.291 166.81 386.242 164.284 386.242C161.758 386.242 159.71 388.291 159.71 390.818C159.71 393.346 161.758 395.395 164.284 395.395Z" fill="#2ECC71"/>
<path d="M164.831 398.525H163.54V407.568H164.831V398.525Z" fill="#3F3D56"/>
<path d="M343.084 421.729C343.084 421.729 343.53 412.382 352.668 413.469L343.084 421.729Z" fill="#3F3D56"/>
<path d="M340.502 412.834C343.028 412.834 345.075 410.786 345.075 408.258C345.075 405.731 343.028 403.682 340.502 403.682C337.976 403.682 335.928 405.731 335.928 408.258C335.928 410.786 337.976 412.834 340.502 412.834Z" fill="#2ECC71"/>
<path d="M341.049 415.964H339.758V425.007H341.049V415.964Z" fill="#3F3D56"/>
<path d="M215.046 25.4912L220.988 20.7355C216.372 20.2259 214.475 22.7451 213.699 24.7391C210.093 23.2406 206.167 25.2045 206.167 25.2045L218.056 29.5235C217.456 27.9204 216.412 26.5216 215.046 25.4912Z" fill="#3F3D56"/>
<path d="M305.414 73.9343L311.356 69.1787C306.74 68.669 304.843 71.1883 304.067 73.1822C300.461 71.6837 296.535 73.6476 296.535 73.6476L308.424 77.9666C307.824 76.3635 306.78 74.9648 305.414 73.9343Z" fill="#3F3D56"/>
<path d="M207.946 115.272L213.888 110.517C209.272 110.007 207.375 112.526 206.599 114.52C202.992 113.022 199.066 114.986 199.066 114.986L210.956 119.305C210.356 117.702 209.312 116.303 207.946 115.272Z" fill="#3F3D56"/>
</g>
<defs>
<clipPath id="clip0">
<rect width="562" height="445" fill="white"/>
</clipPath>
</defs>
</svg>
