<svg width="109" height="109" viewBox="0 0 109 109" fill="none" xmlns="http://www.w3.org/2000/svg">
<g clip-path="url(#clip0)">
<path d="M109 60.7478C109 75.552 99.4308 87.6669 87.7352 87.6669H75.2586C72.0178 87.6669 68.9384 86.7363 66.1833 85.0747C58.2282 80.2855 53.9937 70.3479 53.9937 60.7478C53.9937 53.7158 56.6057 47.4197 60.6639 43.339C62.9983 40.9897 64.8336 38.0159 66.0819 34.6878C66.9816 32.292 67.5779 29.7157 67.8424 27.0504C67.9463 26.0117 67.9987 24.9572 67.9987 23.8961C67.9987 14.499 74.0744 6.81165 81.4973 6.81165C85.2096 6.81165 88.5842 8.73265 91.0308 11.8304C93.4774 14.9273 94.9951 19.1976 94.9951 23.8961C94.9951 31.4471 97.662 38.6405 102.331 43.339C104.359 45.3798 106.026 47.9736 107.187 50.9366C108.347 53.9012 109 57.2318 109 60.7478Z" fill="#35E298"/>
<path d="M80.3497 52.2139C80.1842 57.305 78.7181 62.2921 76.2141 66.8385L66.1841 85.0748C58.2282 80.2856 53.9937 70.3479 53.9937 60.7479C53.9937 53.7158 56.6057 47.4197 60.6648 43.3391C62.9983 40.9898 64.8336 38.016 66.0827 34.6879C66.9825 32.292 67.5779 29.7157 67.8424 27.0504C71.8174 29.1843 76.0594 33.1544 78.5967 40.5241C79.9048 44.3278 80.4802 48.2779 80.3497 52.2139Z" fill="#1AB975"/>
<path d="M97.9472 61.6742C97.9472 70.5233 90.7738 77.6976 81.9247 77.6976C73.0756 77.6976 65.9014 70.5233 65.9014 61.6742C65.9014 52.8251 73.0756 45.6509 81.9247 45.6509C90.7738 45.6509 97.9472 52.8251 97.9472 61.6742Z" fill="#AE583E"/>
<path d="M79.9262 45.7748C65.7831 47.5345 60.865 65.6011 72.095 74.3279L76.2139 66.8385C78.7171 62.2921 80.184 57.305 80.3495 52.2139C80.4202 50.0625 80.2813 47.9078 79.9262 45.7748Z" fill="#7C3F2C"/>
<path d="M34.5755 18.5589C33.7381 14.746 29.4196 0.938862 11.1733 4.07983C10.6419 4.17131 10.3451 4.74678 10.5771 5.2341C12.4673 9.20335 20.484 23.9144 33.8287 19.8221C34.3685 19.6566 34.6961 19.1102 34.5755 18.5589Z" fill="#1ED688"/>
<path d="M33.8271 19.8213C20.484 23.9153 12.4673 9.20419 10.5771 5.23411C10.3459 4.74596 10.6411 4.17049 11.1725 4.07984C12.7343 3.81123 14.1971 3.6657 15.5626 3.62994C18.3617 8.56884 24.6287 17.1901 34.0175 16.5256C34.2836 17.3423 34.4624 18.0433 34.5755 18.5597C34.6969 19.1111 34.3676 19.6558 33.8271 19.8213Z" fill="#1AB975"/>
<path d="M35.4729 30.7061C34.559 30.7061 33.8188 29.966 33.8188 29.0521V5.42536C33.8188 4.51143 34.559 3.7713 35.4729 3.7713C36.3868 3.7713 37.127 4.51143 37.127 5.42536V29.0521C37.127 29.966 36.3868 30.7061 35.4729 30.7061Z" fill="#C0694E"/>
<path d="M66.7878 66.8376L55.1454 88.0061C52.1341 92.9392 45.2834 94.7313 39.8779 91.9122C37.1079 90.4677 33.8388 90.4677 31.0654 91.9122C25.7847 94.6664 18.8924 93.0648 15.8005 88.0061L4.15555 66.8376C-0.613704 58.1698 -1.09271 48.87 1.77383 40.524C5.35139 30.1248 12.331 26.4965 17.1527 25.2433C19.3656 24.6678 21.1261 24.593 21.8962 24.593C22.1689 24.593 22.3169 24.6013 22.3169 24.6013C24.4966 24.6013 26.5856 24.968 28.5116 25.6358C30.4351 26.3044 32.1997 27.2774 33.7324 28.4882C34.233 28.9165 34.8534 29.1327 35.4729 29.1327C36.0933 29.1327 36.7129 28.9165 37.2135 28.4882C38.747 27.2774 40.5091 26.3044 42.4351 25.6358C44.3603 24.968 46.4476 24.6013 48.6289 24.6013C48.6289 24.6013 63.3708 23.6616 69.1704 40.524C72.0594 48.9241 71.5313 58.2256 66.7878 66.8376Z" fill="#C42D2D"/>
<path d="M66.7879 66.8376L55.1454 88.0061C52.1342 92.9392 45.2834 94.7313 39.878 91.9122C37.1079 90.4677 33.8389 90.4677 31.0655 91.9122C29.5794 92.6881 27.9894 93.1064 26.436 93.2161C26.347 93.039 17.102 72.7071 14.7444 67.5237C7.69493 52.0259 10.4284 34.756 17.1528 25.2433C19.3657 24.6678 21.1262 24.593 21.8962 24.593C22.169 24.593 22.317 24.6013 22.317 24.6013C24.4967 24.6013 26.5857 24.968 28.5117 25.6358C30.4352 26.3044 32.1998 27.2774 33.7325 28.4882C34.2331 28.9165 34.8535 29.1327 35.473 29.1327C36.0934 29.1327 36.7129 28.9165 37.2136 28.4882C38.747 27.2774 40.5092 26.3044 42.4352 25.6358C44.3604 24.968 46.4477 24.6013 48.629 24.6013C48.629 24.6013 63.3708 23.6616 69.1704 40.524C72.0594 48.9241 71.5314 58.2256 66.7879 66.8376Z" fill="#F44545"/>
<path d="M14.4715 72.1067C12.6145 73.0863 11.9035 75.3857 12.8831 77.2435C14.0332 79.4215 15.486 81.3134 17.0935 82.9508L4.41072 81.5379C2.32422 81.3059 0.443968 82.8086 0.211119 84.8959C-0.0208985 86.9824 1.48264 88.8627 3.56914 89.0955L16.2511 90.5084C14.3226 91.7525 12.4889 93.2785 10.8881 95.1496C9.52342 96.7455 9.71053 99.1455 11.3064 100.51C12.9022 101.875 15.3022 101.688 16.6669 100.092C21.0112 95.0124 28.8873 92.8336 35.5518 92.6157C38.1971 92.5301 39.9543 89.8232 38.9422 87.3724C38.4849 86.2598 37.4994 85.3874 36.257 85.1097C36.1364 85.0822 24.0865 82.1799 19.6083 73.6942C18.6278 71.8372 16.3284 71.1262 14.4715 72.1067Z" fill="#1AB975"/>
<path d="M108.579 96.9908C108.036 101.862 103.922 105.55 99.0209 105.559C70.9177 105.614 90.5594 105.576 45.3267 105.663C35.9296 105.68 28.6082 97.5139 29.6493 88.1767C29.8789 86.1251 30.4901 84.2166 31.399 82.5093C34.0943 77.4531 39.4265 74.1708 45.2743 74.1708C46.4344 74.1708 47.617 74.2988 48.8012 74.5708C88.655 83.676 91.7469 84.382 94.3357 84.9733L97.5872 85.7168L101.147 86.5309C105.032 87.4157 107.871 90.5584 108.504 94.3197C108.652 95.1821 108.681 96.0802 108.579 96.9908Z" fill="#FFA90B"/>
<path d="M108.504 94.3197C106.739 96.6274 103.96 98.0985 100.867 98.1027C72.7662 98.1584 92.4071 98.121 47.1753 98.2066C38.3827 98.2224 31.4097 91.0773 31.3989 82.5093C34.0942 77.4531 39.4256 74.1708 45.2734 74.1708C45.9021 74.1708 46.5358 74.2082 47.1728 74.288C47.7133 74.3521 48.258 74.4469 48.8011 74.5708L50.4269 74.9408C92.5227 84.5608 54.9949 75.9845 94.3356 84.9733L97.5863 85.7168L101.147 86.5309C105.032 87.4157 107.871 90.5584 108.504 94.3197Z" fill="#FFB52D"/>
<path d="M97.5863 85.7168L96.3314 98.5044C96.2366 99.3493 95.5222 99.9755 94.6906 99.9755C94.6283 99.9755 94.5667 99.9713 94.5052 99.9647C93.5962 99.8632 92.9434 99.0474 93.0424 98.1385L94.3355 84.9733L97.5863 85.7168Z" fill="#F29500"/>
<path d="M52.4078 95.1688L51.2959 105.651L47.967 105.658L49.1188 94.8029C49.2203 93.8939 50.0361 93.2386 50.945 93.3401C51.854 93.4415 52.5093 94.2598 52.4078 95.1688Z" fill="#F29500"/>
<path d="M82.6858 98.5417L81.9515 105.592L78.6226 105.599L79.3968 98.1758C79.4982 97.2669 80.3165 96.6141 81.2255 96.7155C82.1319 96.817 82.7872 97.6328 82.6858 98.5417Z" fill="#F29500"/>
<path d="M69.587 79.3201L69.0914 84.876C68.9966 85.7209 68.2814 86.3479 67.4498 86.3479C67.3882 86.3479 67.3267 86.3429 67.2643 86.3363C66.3554 86.2348 65.7009 85.419 65.8024 84.5101L66.3338 78.5766L69.587 79.3201Z" fill="#F29500"/>
<path d="M63.089 98.9035L62.3937 105.63L59.0657 105.636L59.8 98.5376C59.9014 97.6287 60.7222 96.9734 61.6287 97.0748C62.5351 97.1763 63.1904 97.9946 63.089 98.9035Z" fill="#F29500"/>
<path d="M50.4269 74.9408L49.2818 85.212C49.187 86.0569 48.4702 86.6831 47.6385 86.6831C47.577 86.6831 47.5155 86.6789 47.4531 86.6723C46.545 86.5708 45.8913 85.7517 45.9928 84.8452L47.1579 74.387C47.162 74.3546 47.167 74.3213 47.1737 74.288C47.7134 74.3521 48.2589 74.4469 48.8011 74.5708L50.4269 74.9408Z" fill="#F29500"/>
</g>
<defs>
<clipPath id="clip0">
<rect width="109" height="109" fill="white"/>
</clipPath>
</defs>
</svg>
