<svg width="50" height="50" viewBox="0 0 50 50" fill="none" xmlns="http://www.w3.org/2000/svg">
<path d="M34.1143 6.77051C36.5295 6.77772 38.8439 7.74039 40.5517 9.44827C42.2596 11.1561 43.2223 13.4705 43.2295 15.8857V34.1143C43.2223 36.5295 42.2596 38.8439 40.5517 40.5517C38.8439 42.2596 36.5295 43.2223 34.1143 43.2295H15.8857C13.4705 43.2223 11.1561 42.2596 9.44827 40.5517C7.74039 38.8439 6.77772 36.5295 6.77051 34.1143V15.8857C6.77772 13.4705 7.74039 11.1561 9.44827 9.44827C11.1561 7.74039 13.4705 6.77772 15.8857 6.77051H34.1143V6.77051ZM34.1143 3.125H15.8857C8.86719 3.125 3.125 8.86719 3.125 15.8857V34.1143C3.125 41.1328 8.86719 46.875 15.8857 46.875H34.1143C41.1328 46.875 46.875 41.1328 46.875 34.1143V15.8857C46.875 8.86719 41.1328 3.125 34.1143 3.125V3.125Z" fill="black"/>
<path d="M36.8486 15.8857C36.3078 15.8857 35.7792 15.7254 35.3295 15.4249C34.8798 15.1245 34.5294 14.6974 34.3224 14.1978C34.1154 13.6981 34.0613 13.1483 34.1668 12.6179C34.2723 12.0875 34.5327 11.6003 34.9151 11.2179C35.2975 10.8355 35.7848 10.575 36.3152 10.4695C36.8456 10.364 37.3954 10.4182 37.895 10.6251C38.3947 10.8321 38.8217 11.1826 39.1222 11.6322C39.4226 12.0819 39.583 12.6106 39.583 13.1514C39.5838 13.5107 39.5136 13.8666 39.3764 14.1987C39.2393 14.5308 39.0379 14.8325 38.7839 15.0866C38.5298 15.3407 38.228 15.542 37.8959 15.6792C37.5639 15.8163 37.2079 15.8865 36.8486 15.8857V15.8857Z" fill="black"/>
<path d="M25 17.708C26.4422 17.708 27.852 18.1357 29.0512 18.9369C30.2504 19.7382 31.185 20.877 31.7369 22.2095C32.2888 23.5419 32.4332 25.0081 32.1519 26.4226C31.8705 27.8371 31.176 29.1364 30.1562 30.1562C29.1364 31.176 27.8371 31.8705 26.4226 32.1519C25.0081 32.4332 23.5419 32.2888 22.2095 31.7369C20.877 31.185 19.7382 30.2504 18.9369 29.0512C18.1357 27.8521 17.708 26.4422 17.708 25C17.7101 23.0667 18.479 21.2131 19.8461 19.8461C21.2131 18.479 23.0667 17.7101 25 17.708V17.708ZM25 14.0625C22.8368 14.0625 20.7221 14.704 18.9235 15.9058C17.1248 17.1076 15.7229 18.8158 14.8951 20.8144C14.0672 22.813 13.8506 25.0121 14.2727 27.1338C14.6947 29.2555 15.7364 31.2043 17.266 32.734C18.7957 34.2636 20.7445 35.3053 22.8662 35.7273C24.9879 36.1494 27.187 35.9328 29.1856 35.1049C31.1842 34.2771 32.8924 32.8752 34.0942 31.0766C35.296 29.2779 35.9375 27.1632 35.9375 25C35.9375 22.0992 34.7852 19.3172 32.734 17.266C30.6828 15.2148 27.9008 14.0625 25 14.0625V14.0625Z" fill="black"/>
</svg>
