<svg width="70" height="70" viewBox="0 0 70 70" fill="none" xmlns="http://www.w3.org/2000/svg">
<path d="M32.3751 35.2334C25.5793 22.0792 30.9168 10.5 33.921 5.86255C18.2876 6.41672 5.77515 19.2209 5.77515 35C5.77515 35.4084 5.83348 35.8167 5.83348 36.225C7.64181 35.4375 9.59598 35 11.6668 35C16.5085 35 20.9418 37.4209 23.6251 41.2709C28.496 42.6709 32.0835 47.1625 32.0835 52.5C32.0835 56.9334 29.546 60.7542 25.9001 62.7375C28.7585 63.6709 31.821 64.1959 34.971 64.1959C45.1793 64.1959 54.1627 58.9459 59.3835 51.0126C52.5002 51.6834 39.0252 48.1834 32.3751 35.2334Z" fill="#2ECC71"/>
<path d="M20.4167 46.6666H19.8917C18.6667 43.2833 15.4584 40.8333 11.6667 40.8333C6.82508 40.8333 2.91675 44.7416 2.91675 49.5833C2.91675 54.4249 6.82508 58.3333 11.6667 58.3333C13.4751 58.3333 18.9292 58.3333 20.4167 58.3333C23.6251 58.3333 26.2501 55.7083 26.2501 52.4999C26.2501 49.2916 23.6251 46.6666 20.4167 46.6666Z" fill="#2ECC71"/>
</svg>
