<svg width="50" height="50" viewBox="0 0 50 50" fill="none" xmlns="http://www.w3.org/2000/svg">
<path d="M25 0.78125C11.1895 0.78125 0 11.6211 0 25C0 38.3789 11.1895 49.2188 25 49.2188C38.8105 49.2188 50 38.3789 50 25C50 11.6211 38.8105 0.78125 25 0.78125ZM37.2782 17.373L33.1754 36.1035C32.873 37.4316 32.0565 37.7539 30.9173 37.1289L24.6673 32.666L21.6532 35.4785C21.3206 35.8008 21.0383 36.0742 20.3931 36.0742L20.8367 29.9121L32.4194 19.7754C32.9234 19.3457 32.3085 19.1016 31.6431 19.5312L17.3286 28.2617L11.1593 26.3965C9.81855 25.9863 9.78831 25.0977 11.4415 24.4727L35.5444 15.4687C36.6633 15.0781 37.6411 15.7324 37.2782 17.373V17.373Z" fill="black"/>
</svg>
