<svg width="139" height="116" viewBox="0 0 139 116" fill="none" xmlns="http://www.w3.org/2000/svg">
<g filter="url(#filter0_d)">
<path d="M12.3701 90.7705C12.2822 91.1924 12.168 91.7197 12.0273 92.3525C11.9043 92.9854 11.7549 93.6533 11.5791 94.3564C11.4209 95.0596 11.2275 95.7539 10.999 96.4395C10.7881 97.1426 10.5508 97.7666 10.2871 98.3115C10.0234 98.874 9.7334 99.3311 9.41699 99.6826C9.10059 100.034 8.74902 100.21 8.3623 100.21C7.78223 100.21 7.28125 100.034 6.85938 99.6826C6.45508 99.3486 6.1123 98.918 5.83105 98.3906C5.5498 97.8809 5.34766 97.3271 5.22461 96.7295C5.08398 96.1318 5.01367 95.5781 5.01367 95.0684C5.01367 94.3652 5.0752 93.7764 5.19824 93.3018C5.32129 92.8447 5.53223 92.4053 5.83105 91.9834C6.14746 91.5615 6.56934 91.1133 7.09668 90.6387C7.62402 90.1641 8.30078 89.5752 9.12695 88.8721C9.53125 88.5205 9.91797 88.1865 10.2871 87.8701C10.6562 87.5537 11.0078 87.2637 11.3418 87C11.4297 86.6484 11.5088 86.3232 11.5791 86.0244C11.667 85.708 11.7373 85.4268 11.79 85.1807C11.333 85.7959 10.7793 86.3145 10.1289 86.7363C9.49609 87.1582 8.7666 87.3691 7.94043 87.3691C7.18457 87.3691 6.56934 87.0352 6.09473 86.3672C5.6377 85.6816 5.40918 84.6797 5.40918 83.3613C5.40918 82.7109 5.53223 81.9639 5.77832 81.1201C6.02441 80.2764 6.37598 79.4854 6.83301 78.7471C7.29004 78.0088 7.85254 77.3848 8.52051 76.875C9.18848 76.3652 9.93555 76.1104 10.7617 76.1104C11.1484 76.1104 11.4824 76.207 11.7637 76.4004C12.0449 76.5938 12.2822 76.8398 12.4756 77.1387C12.6689 77.4199 12.8184 77.7275 12.9238 78.0615C13.0293 78.3779 13.1084 78.6768 13.1611 78.958C13.1963 78.8525 13.2227 78.7471 13.2402 78.6416C13.2578 78.5186 13.2842 78.4131 13.3193 78.3252C13.4951 77.7275 13.6885 77.3232 13.8994 77.1123C14.1279 76.8838 14.4619 76.7695 14.9014 76.7695C15.1475 76.7695 15.3496 76.8135 15.5078 76.9014C15.6836 76.9893 15.7715 77.0684 15.7715 77.1387C15.6836 77.332 15.6133 77.4814 15.5605 77.5869C15.5078 77.6924 15.4551 77.8066 15.4023 77.9297C15.3496 78.0352 15.2969 78.1758 15.2441 78.3516C15.1914 78.5273 15.1211 78.7822 15.0332 79.1162C14.998 79.2393 14.9277 79.5293 14.8223 79.9863C14.7344 80.4258 14.6113 80.9531 14.4531 81.5684C14.3125 82.1836 14.1543 82.8604 13.9785 83.5986C13.8203 84.3369 13.6621 85.0576 13.5039 85.7607C13.9961 85.4795 14.5059 85.1367 15.0332 84.7324C15.5605 84.3281 16.0615 83.915 16.5361 83.4932C17.0107 83.0713 17.4326 82.6758 17.8018 82.3066C18.1709 81.9199 18.4434 81.6035 18.6191 81.3574C18.7598 81.1465 18.918 80.9971 19.0938 80.9092C19.2695 80.8213 19.4189 80.7949 19.542 80.8301C19.6826 80.8477 19.7617 80.9268 19.7793 81.0674C19.8145 81.1904 19.7617 81.3662 19.6211 81.5947C19.2168 82.2451 18.7246 82.8779 18.1445 83.4932C17.5645 84.0908 16.9668 84.6533 16.3516 85.1807C15.7539 85.6904 15.165 86.1475 14.585 86.5518C14.0225 86.9385 13.5391 87.2549 13.1348 87.501C12.959 88.292 12.8096 88.9336 12.6865 89.4258C12.5635 89.918 12.458 90.3662 12.3701 90.7705ZM9.04785 85.5762C9.41699 85.5762 9.75977 85.4795 10.0762 85.2861C10.4102 85.0928 10.709 84.873 10.9727 84.627C11.2363 84.3633 11.4561 84.0996 11.6318 83.8359C11.8076 83.5723 11.9395 83.3613 12.0273 83.2031C12.0977 83.0449 12.1768 82.834 12.2646 82.5703C12.3701 82.3066 12.4492 82.0518 12.502 81.8057C12.5547 81.5596 12.5723 81.3398 12.5547 81.1465C12.5547 80.9531 12.4932 80.8477 12.3701 80.8301C12.2646 80.8125 12.1768 80.7422 12.1064 80.6191C12.0537 80.4961 12.0098 80.3555 11.9746 80.1973C11.9395 80.0391 11.9131 79.8809 11.8955 79.7227C11.8955 79.5645 11.8867 79.4238 11.8691 79.3008C11.7812 78.6855 11.6318 78.2373 11.4209 77.9561C11.21 77.6748 10.9727 77.5342 10.709 77.5342C10.2695 77.5342 9.84766 77.71 9.44336 78.0615C9.05664 78.4131 8.70508 78.8701 8.38867 79.4326C8.08984 79.9775 7.85254 80.584 7.67676 81.252C7.50098 81.9023 7.41309 82.5264 7.41309 83.124C7.41309 83.8623 7.51855 84.46 7.72949 84.917C7.94043 85.3564 8.37988 85.5762 9.04785 85.5762ZM7.83496 97.8105C8.18652 97.8105 8.46777 97.5469 8.67871 97.0195C8.90723 96.5098 9.14453 95.8066 9.39062 94.9102C9.44336 94.6992 9.51367 94.3916 9.60156 93.9873C9.70703 93.6006 9.82129 93.1523 9.94434 92.6426C10.085 92.1328 10.2256 91.5791 10.3662 90.9814C10.5068 90.4014 10.6562 89.8125 10.8145 89.2148C10.6738 89.3379 10.5244 89.4609 10.3662 89.584C10.2256 89.7246 10.0762 89.8828 9.91797 90.0586C9.53125 90.4277 9.15332 90.7793 8.78418 91.1133C8.43262 91.4648 8.11621 91.8252 7.83496 92.1943C7.55371 92.5811 7.3252 92.9941 7.14941 93.4336C6.99121 93.873 6.91211 94.3828 6.91211 94.9629C6.91211 95.543 6.92969 96.0176 6.96484 96.3867C7.01758 96.7559 7.0791 97.0459 7.14941 97.2568C7.2373 97.4678 7.33398 97.6084 7.43945 97.6787C7.5625 97.7666 7.69434 97.8105 7.83496 97.8105ZM30.1152 85.7871C30.1152 85.418 30.1504 84.9961 30.2207 84.5215C30.3086 84.0469 30.4141 83.5635 30.5371 83.0713C30.6602 82.5615 30.7832 82.0693 30.9062 81.5947C31.0293 81.1201 31.1348 80.6982 31.2227 80.3291C31.3281 79.8721 31.3193 79.5205 31.1963 79.2744C31.0732 79.0283 30.8623 78.9053 30.5635 78.9053C30.4229 78.9053 30.1416 79.0283 29.7197 79.2744C29.3154 79.5205 28.8672 79.9512 28.375 80.5664C27.9004 81.1641 27.4258 81.9814 26.9512 83.0186C26.4941 84.0381 26.1338 85.3389 25.8701 86.9209C25.5361 87.0967 25.2197 87.2109 24.9209 87.2637C24.7627 87.2988 24.6221 87.3252 24.499 87.3428C24.1475 87.3604 23.9189 87.2988 23.8135 87.1582C23.708 87.0352 23.7256 86.7188 23.8662 86.209C23.9365 85.9629 24.0596 85.5674 24.2354 85.0225C24.4287 84.4775 24.6133 83.8887 24.7891 83.2559C24.9648 82.6055 25.1143 81.9639 25.2373 81.3311C25.3779 80.6807 25.4482 80.1182 25.4482 79.6436C25.4482 79.3096 25.3867 79.0811 25.2637 78.958C25.1582 78.835 25 78.7734 24.7891 78.7734C24.6309 78.7734 24.3672 78.8613 23.998 79.0371C23.6289 79.2129 23.2158 79.5557 22.7588 80.0654C22.3018 80.5752 21.8447 81.2871 21.3877 82.2012C20.9482 83.0977 20.5703 84.2666 20.2539 85.708V85.6553C20.2188 85.7959 20.1836 85.9365 20.1484 86.0771C20.1133 86.2002 20.0869 86.332 20.0693 86.4727C20.0518 86.6133 20.0254 86.7451 19.9902 86.8682L18.6719 87.4482C18.584 87.4834 18.4697 87.5098 18.3291 87.5273C18.2061 87.5449 18.083 87.5186 17.96 87.4482C17.8545 87.3955 17.7754 87.2725 17.7227 87.0791C17.6699 86.8857 17.6875 86.5957 17.7754 86.209L19.4365 79.3271C19.4893 79.0986 19.5332 78.8789 19.5684 78.668C19.6035 78.4746 19.6211 78.29 19.6211 78.1143C19.6387 77.9209 19.6299 77.7627 19.5947 77.6396C19.8936 77.499 20.1572 77.3936 20.3857 77.3232C20.6143 77.2529 20.7988 77.2002 20.9395 77.165C21.1152 77.1123 21.2646 77.0859 21.3877 77.0859C21.9502 77.0859 22.1348 77.5693 21.9414 78.5361C21.8711 78.8174 21.7656 79.2305 21.625 79.7754C21.959 79.3535 22.3105 78.958 22.6797 78.5889C23.0664 78.2021 23.4531 77.8594 23.8398 77.5605C24.2266 77.2617 24.6133 77.0244 25 76.8486C25.4043 76.6729 25.7998 76.585 26.1865 76.585C26.4854 76.585 26.7314 76.6729 26.9248 76.8486C27.1357 77.0244 27.2939 77.2617 27.3994 77.5605C27.5225 77.8418 27.5928 78.1846 27.6104 78.5889C27.6279 78.9756 27.6104 79.3799 27.5576 79.8018C27.8389 79.4326 28.1465 79.0635 28.4805 78.6943C28.832 78.3076 29.1924 77.9648 29.5615 77.666C29.9482 77.3672 30.3438 77.1211 30.748 76.9277C31.1523 76.7344 31.5566 76.6377 31.9609 76.6377C32.4355 76.6377 32.7959 76.7783 33.042 77.0596C33.3057 77.3408 33.4814 77.7012 33.5693 78.1406C33.6748 78.5801 33.7012 79.0547 33.6484 79.5645C33.6133 80.0742 33.543 80.5664 33.4375 81.041L32.541 84.6006C32.3477 85.4795 32.5322 85.9189 33.0947 85.9189C33.5342 85.9189 34.0176 85.708 34.5449 85.2861C35.0723 84.8643 35.582 84.3633 36.0742 83.7832C36.584 83.2031 37.0586 82.6055 37.498 81.9902C37.9375 81.375 38.3066 80.8828 38.6055 80.5137C38.7109 80.3906 38.8164 80.3203 38.9219 80.3027C39.0449 80.2852 39.1416 80.3115 39.2119 80.3818C39.2998 80.4346 39.3438 80.5312 39.3438 80.6719C39.3613 80.8125 39.3174 80.9883 39.2119 81.1992C38.8604 81.8145 38.4297 82.5 37.9199 83.2559C37.4102 83.9941 36.8477 84.6885 36.2324 85.3389C35.6348 85.9893 34.9932 86.5342 34.3076 86.9736C33.6221 87.4131 32.9102 87.6328 32.1719 87.6328C31.9258 87.6328 31.6797 87.6064 31.4336 87.5537C31.2051 87.501 30.9854 87.4043 30.7744 87.2637C30.5811 87.123 30.4229 86.9385 30.2998 86.71C30.1768 86.4639 30.1152 86.1562 30.1152 85.7871ZM58.5127 82.4385C58.2666 83.0713 57.9854 83.6865 57.6689 84.2842C57.3525 84.8818 57.001 85.418 56.6143 85.8926C56.2275 86.3672 55.8145 86.7451 55.375 87.0264C54.9355 87.3076 54.4609 87.4482 53.9512 87.4482C53.125 87.4482 52.501 87.1758 52.0791 86.6309C51.6572 86.0684 51.3672 85.3828 51.209 84.5742C50.9629 84.9434 50.6992 85.3125 50.418 85.6816C50.1367 86.0508 49.8379 86.376 49.5215 86.6572C49.2051 86.9385 48.8799 87.167 48.5459 87.3428C48.2119 87.5186 47.8779 87.6064 47.5439 87.6064C47.0869 87.6064 46.7002 87.5098 46.3838 87.3164C46.0674 87.123 45.8037 86.8594 45.5928 86.5254C45.3994 86.1738 45.2588 85.7783 45.1709 85.3389C45.083 84.8818 45.0391 84.3984 45.0391 83.8887V83.5723C45.0391 82.9219 45.0918 82.2539 45.1973 81.5684C45.3027 80.8828 45.417 80.25 45.54 79.6699C45.6807 79.0898 45.8213 78.5889 45.9619 78.167C46.1025 77.7275 46.208 77.4375 46.2783 77.2969C46.4014 77.1211 46.665 76.9541 47.0693 76.7959C47.4912 76.6201 47.9043 76.5498 48.3086 76.585C48.502 76.6025 48.5986 76.6816 48.5986 76.8223C48.6162 76.9629 48.5986 77.1387 48.5459 77.3496C48.4756 77.6484 48.3525 78.0967 48.1768 78.6943C48.001 79.292 47.8164 79.9424 47.623 80.6455C47.4473 81.3486 47.2891 82.043 47.1484 82.7285C47.0078 83.4141 46.9375 83.9854 46.9375 84.4424C46.9375 85.0049 47.0254 85.4092 47.2012 85.6553C47.377 85.9014 47.6494 86.0244 48.0186 86.0244C48.458 86.0244 48.9414 85.7783 49.4688 85.2861C50.0137 84.7939 50.541 83.959 51.0508 82.7812C51.0332 82.6758 51.0244 82.5703 51.0244 82.4648C51.0244 82.3594 51.0244 82.2451 51.0244 82.1221C51.0244 81.3311 51.0508 80.5752 51.1035 79.8545C51.1738 79.1338 51.2969 78.501 51.4727 77.9561C51.666 77.4111 51.9209 76.9805 52.2373 76.6641C52.5713 76.3477 53.002 76.1895 53.5293 76.1895C53.7402 76.1895 53.916 76.251 54.0566 76.374C54.1973 76.4971 54.2676 76.6729 54.2676 76.9014C54.2676 77.4639 54.0654 78.2637 53.6611 79.3008C53.2744 80.3203 52.8086 81.4453 52.2637 82.6758C52.2109 82.7461 52.1758 82.8164 52.1582 82.8867C52.2109 83.2207 52.2725 83.5723 52.3428 83.9414C52.4307 84.3105 52.5449 84.6533 52.6855 84.9697C52.8262 85.2686 52.9932 85.5234 53.1865 85.7344C53.3799 85.9277 53.6084 86.0244 53.8721 86.0244C54.2588 86.0244 54.6104 85.8398 54.9268 85.4707C55.2607 85.1016 55.5508 84.6533 55.7969 84.126C56.0605 83.5986 56.2891 83.0449 56.4824 82.4648C56.6758 81.8672 56.8252 81.3398 56.9307 80.8828C56.8779 80.6895 56.834 80.5049 56.7988 80.3291C56.7637 80.1357 56.7461 79.916 56.7461 79.6699C56.7461 79.125 56.8252 78.6592 56.9834 78.2725C57.1416 77.8857 57.3438 77.5693 57.5898 77.3232C57.8535 77.0596 58.126 76.8662 58.4072 76.7432C58.7061 76.6201 58.9785 76.5586 59.2246 76.5586C59.6641 76.5586 59.8838 76.752 59.8838 77.1387C59.8838 77.4199 59.8135 77.9121 59.6729 78.6152C59.5322 79.3008 59.3301 80.083 59.0664 80.9619C59.3828 81.1025 59.7871 81.1729 60.2793 81.1729C60.7363 81.1729 61.1582 81.1201 61.5449 81.0146C61.9316 80.8916 62.2832 80.7422 62.5996 80.5664C62.916 80.3906 63.2061 80.1973 63.4697 79.9863C63.7334 79.7754 63.9883 79.5732 64.2344 79.3799C64.4277 79.2393 64.5859 79.2305 64.709 79.3535C64.832 79.4766 64.8145 79.6699 64.6562 79.9336C64.5156 80.1621 64.2695 80.4258 63.918 80.7246C63.584 81.0234 63.1709 81.3135 62.6787 81.5947C62.2041 81.8584 61.668 82.0869 61.0703 82.2803C60.4902 82.4561 59.875 82.5439 59.2246 82.5439C59.1191 82.5439 59.0049 82.5352 58.8818 82.5176C58.7588 82.5 58.6357 82.4736 58.5127 82.4385ZM74.1748 81.5156C73.6475 82.2891 73.0498 83.0449 72.3818 83.7832C71.7139 84.5039 71.002 85.1543 70.2461 85.7344C69.5078 86.2969 68.7432 86.7539 67.9521 87.1055C67.1787 87.457 66.4229 87.6328 65.6846 87.6328C65.2979 87.6328 64.876 87.5361 64.4189 87.3428C63.9795 87.167 63.5752 86.8857 63.2061 86.499C62.8369 86.1123 62.5381 85.6113 62.3096 84.9961C62.0986 84.3809 62.0371 83.6338 62.125 82.7549C62.1953 82.0342 62.415 81.2783 62.7842 80.4873C63.1709 79.6787 63.6367 78.9404 64.1816 78.2725C64.7441 77.6045 65.3682 77.0508 66.0537 76.6113C66.7568 76.1719 67.46 75.9521 68.1631 75.9521C68.8311 75.9521 69.3145 76.1191 69.6133 76.4531C69.9121 76.7871 70.0439 77.2002 70.0088 77.6924C69.9561 78.2373 69.7979 78.7383 69.5342 79.1953C69.2881 79.6523 68.9893 80.0654 68.6377 80.4346C68.2861 80.8037 67.9082 81.1377 67.5039 81.4365C67.1172 81.7354 66.748 82.0078 66.3965 82.2539C66.0098 82.5176 65.6406 82.7725 65.2891 83.0186C64.9375 83.2471 64.6299 83.458 64.3662 83.6514C64.3838 84.0908 64.4629 84.46 64.6035 84.7588C64.7441 85.0576 64.9199 85.3037 65.1309 85.4971C65.3418 85.6729 65.5791 85.8047 65.8428 85.8926C66.124 85.9629 66.4053 85.998 66.6865 85.998C67.2842 85.998 67.9082 85.8135 68.5586 85.4443C69.209 85.0576 69.8418 84.6006 70.457 84.0732C71.0898 83.5283 71.6699 82.9658 72.1973 82.3857C72.7422 81.8057 73.1904 81.3047 73.542 80.8828C73.665 80.7422 73.7881 80.6631 73.9111 80.6455C74.0518 80.6104 74.1572 80.6279 74.2275 80.6982C74.3154 80.751 74.3594 80.8564 74.3594 81.0146C74.3594 81.1553 74.2979 81.3223 74.1748 81.5156ZM67.4248 77.4551C67.2139 77.4551 66.959 77.5605 66.6602 77.7715C66.3789 77.9824 66.0977 78.29 65.8164 78.6943C65.5352 79.0811 65.2715 79.5645 65.0254 80.1445C64.7793 80.707 64.5947 81.3574 64.4717 82.0957C64.6826 81.9375 64.9111 81.7793 65.1572 81.6211C65.4033 81.4453 65.6494 81.2607 65.8955 81.0674C66.6514 80.4873 67.1787 79.9775 67.4775 79.5381C67.7764 79.0986 67.9434 78.7207 67.9785 78.4043C68.0137 78.0703 67.9785 77.833 67.873 77.6924C67.7676 77.5342 67.6182 77.4551 67.4248 77.4551ZM71.8809 86.5781C72.6543 83.3262 73.2695 80.7158 73.7266 78.7471C74.2012 76.7783 74.5615 75.2754 74.8076 74.2383C75.0889 73.0078 75.2822 72.1553 75.3877 71.6807C75.4404 71.3467 75.4844 71.0215 75.5195 70.7051C75.5547 70.4238 75.5723 70.1338 75.5723 69.835C75.5723 69.5361 75.5459 69.2637 75.4932 69.0176C75.6338 68.9297 75.7832 68.8594 75.9414 68.8066C76.1172 68.7539 76.2842 68.71 76.4424 68.6748C76.6357 68.6221 76.8291 68.5781 77.0225 68.543C77.2158 68.5078 77.3916 68.4902 77.5498 68.4902C77.6904 68.4902 77.8223 68.5078 77.9453 68.543C78.0684 68.5605 78.1475 68.6133 78.1826 68.7012C78.2881 68.7891 78.332 68.9648 78.3145 69.2285C78.3145 69.4922 78.2969 69.7646 78.2617 70.0459C78.1914 70.3799 78.1123 70.7402 78.0244 71.127C77.8135 71.8828 77.5234 72.9727 77.1543 74.3965C76.8379 75.6094 76.4072 77.2617 75.8623 79.3535C75.335 81.4453 74.667 84.082 73.8584 87.2637C73.7705 87.3516 73.665 87.4131 73.542 87.4482C73.4189 87.4834 73.3047 87.501 73.1992 87.501C73.0762 87.501 72.9443 87.4922 72.8037 87.4746C72.6807 87.4395 72.5576 87.3867 72.4346 87.3164C72.3291 87.2461 72.2236 87.1494 72.1182 87.0264C72.0127 86.9209 71.9336 86.7715 71.8809 86.5781ZM77.7871 86.5781C78.5605 83.3262 79.1758 80.7158 79.6328 78.7471C80.1074 76.7783 80.4678 75.2754 80.7139 74.2383C80.9951 73.0078 81.1885 72.1553 81.2939 71.6807C81.3467 71.3467 81.3906 71.0215 81.4258 70.7051C81.4609 70.4238 81.4785 70.1338 81.4785 69.835C81.4785 69.5361 81.4521 69.2637 81.3994 69.0176C81.54 68.9297 81.6895 68.8594 81.8477 68.8066C82.0234 68.7539 82.1904 68.71 82.3486 68.6748C82.542 68.6221 82.7354 68.5781 82.9287 68.543C83.1221 68.5078 83.2979 68.4902 83.4561 68.4902C83.5967 68.4902 83.7285 68.5078 83.8516 68.543C83.9746 68.5605 84.0537 68.6133 84.0889 68.7012C84.1943 68.7891 84.2383 68.9648 84.2207 69.2285C84.2207 69.4922 84.2031 69.7646 84.168 70.0459C84.0977 70.3799 84.0186 70.7402 83.9307 71.127C83.7197 71.8828 83.4297 72.9727 83.0605 74.3965C82.7441 75.6094 82.3135 77.2617 81.7686 79.3535C81.2412 81.4453 80.5732 84.082 79.7646 87.2637C79.6768 87.3516 79.5713 87.4131 79.4482 87.4482C79.3252 87.4834 79.2109 87.501 79.1055 87.501C78.9824 87.501 78.8506 87.4922 78.71 87.4746C78.5869 87.4395 78.4639 87.3867 78.3408 87.3164C78.2354 87.2461 78.1299 87.1494 78.0244 87.0264C77.9189 86.9209 77.8398 86.7715 77.7871 86.5781ZM91.9199 87.6592C91.5156 87.6592 91.1641 87.5801 90.8652 87.4219C90.584 87.2812 90.3555 87.0879 90.1797 86.8418C90.0039 86.5957 89.8896 86.3145 89.8369 85.998C89.7842 85.6641 89.8018 85.3125 89.8896 84.9434C89.9424 84.6973 90.0303 84.3721 90.1533 83.9678C90.2764 83.5459 90.3994 83.0977 90.5225 82.623C90.6631 82.1309 90.7861 81.6475 90.8916 81.1729C91.0146 80.6807 91.0938 80.2412 91.1289 79.8545C91.1641 79.4502 91.1465 79.125 91.0762 78.8789C91.0059 78.6152 90.8564 78.4834 90.6279 78.4834C90.3467 78.4834 90.0566 78.5801 89.7578 78.7734C89.459 78.9492 89.1514 79.1953 88.835 79.5117C88.5361 79.8281 88.2285 80.1973 87.9121 80.6191C87.6133 81.0234 87.3145 81.4453 87.0156 81.8848C86.8574 82.4824 86.7256 83.0098 86.6201 83.4668C86.5146 83.9062 86.418 84.3105 86.3301 84.6797C86.2598 85.0312 86.1895 85.3477 86.1191 85.6289C86.0488 85.8926 85.9873 86.1475 85.9346 86.3936C85.8818 86.5693 85.7236 86.7451 85.46 86.9209C85.1963 87.0791 84.915 87.2109 84.6162 87.3164C84.3174 87.4219 84.0625 87.4746 83.8516 87.4746C83.623 87.4746 83.5264 87.3955 83.5615 87.2373C83.5791 87.1318 83.6406 86.8945 83.7461 86.5254C83.834 86.1562 83.9482 85.7256 84.0889 85.2334C84.2119 84.7236 84.3438 84.1875 84.4844 83.625C84.625 83.0625 84.7568 82.5264 84.8799 82.0166C84.9678 81.6123 85.0645 81.1641 85.1699 80.6719C85.2578 80.25 85.3633 79.7578 85.4863 79.1953C85.627 78.6328 85.7852 78.0176 85.9609 77.3496C86.084 77.2441 86.207 77.165 86.3301 77.1123C86.4707 77.042 86.6113 76.9893 86.752 76.9541C86.8926 76.9014 87.042 76.8662 87.2002 76.8486C87.3408 76.8486 87.4814 76.8574 87.6221 76.875C87.7451 76.8926 87.8682 76.9277 87.9912 76.9805C88.1318 77.0156 88.2549 77.0771 88.3604 77.165C88.3076 77.2881 88.2461 77.4639 88.1758 77.6924C88.1055 77.9033 88.0352 78.1318 87.9648 78.3779C87.8945 78.6592 87.8066 78.9492 87.7012 79.248C87.9297 78.9316 88.1846 78.6152 88.4658 78.2988C88.7646 77.9648 89.0811 77.666 89.415 77.4023C89.7666 77.1387 90.1357 76.9277 90.5225 76.7695C90.9092 76.5938 91.3047 76.5059 91.709 76.5059C92.043 76.5059 92.3418 76.6025 92.6055 76.7959C92.8691 76.9893 93.0713 77.2617 93.2119 77.6133C93.3701 77.9473 93.458 78.3516 93.4756 78.8262C93.5107 79.3008 93.4492 79.8193 93.291 80.3818L93.001 81.542C92.9131 81.9111 92.7988 82.3506 92.6582 82.8604C92.5352 83.3525 92.377 83.8975 92.1836 84.4951C92.0781 84.8818 92.0342 85.2158 92.0518 85.4971C92.0869 85.7783 92.2627 85.9189 92.5791 85.9189C92.8955 85.9189 93.291 85.7256 93.7656 85.3389C94.2578 84.9521 94.75 84.4863 95.2422 83.9414C95.7344 83.3965 96.2002 82.8428 96.6396 82.2803C97.0791 81.7002 97.4131 81.2344 97.6416 80.8828C97.7998 80.6543 97.9492 80.5049 98.0898 80.4346C98.2305 80.3643 98.3359 80.3555 98.4062 80.4082C98.4941 80.4609 98.5381 80.584 98.5381 80.7773C98.5381 80.9531 98.4678 81.1816 98.3271 81.4629C98.2041 81.709 98.0107 82.0342 97.7471 82.4385C97.501 82.8428 97.2021 83.2734 96.8506 83.7305C96.499 84.1875 96.1211 84.6533 95.7168 85.1279C95.3125 85.585 94.8906 86.0068 94.4512 86.3936C94.0117 86.7627 93.5723 87.0615 93.1328 87.29C92.7109 87.5361 92.3066 87.6592 91.9199 87.6592ZM108.505 81.5156C107.978 82.2891 107.38 83.0449 106.712 83.7832C106.044 84.5039 105.332 85.1543 104.576 85.7344C103.838 86.2969 103.073 86.7539 102.282 87.1055C101.509 87.457 100.753 87.6328 100.015 87.6328C99.6279 87.6328 99.2061 87.5361 98.749 87.3428C98.3096 87.167 97.9053 86.8857 97.5361 86.499C97.167 86.1123 96.8682 85.6113 96.6396 84.9961C96.4287 84.3809 96.3672 83.6338 96.4551 82.7549C96.5254 82.0342 96.7451 81.2783 97.1143 80.4873C97.501 79.6787 97.9668 78.9404 98.5117 78.2725C99.0742 77.6045 99.6982 77.0508 100.384 76.6113C101.087 76.1719 101.79 75.9521 102.493 75.9521C103.161 75.9521 103.645 76.1191 103.943 76.4531C104.242 76.7871 104.374 77.2002 104.339 77.6924C104.286 78.2373 104.128 78.7383 103.864 79.1953C103.618 79.6523 103.319 80.0654 102.968 80.4346C102.616 80.8037 102.238 81.1377 101.834 81.4365C101.447 81.7354 101.078 82.0078 100.727 82.2539C100.34 82.5176 99.9707 82.7725 99.6191 83.0186C99.2676 83.2471 98.96 83.458 98.6963 83.6514C98.7139 84.0908 98.793 84.46 98.9336 84.7588C99.0742 85.0576 99.25 85.3037 99.4609 85.4971C99.6719 85.6729 99.9092 85.8047 100.173 85.8926C100.454 85.9629 100.735 85.998 101.017 85.998C101.614 85.998 102.238 85.8135 102.889 85.4443C103.539 85.0576 104.172 84.6006 104.787 84.0732C105.42 83.5283 106 82.9658 106.527 82.3857C107.072 81.8057 107.521 81.3047 107.872 80.8828C107.995 80.7422 108.118 80.6631 108.241 80.6455C108.382 80.6104 108.487 80.6279 108.558 80.6982C108.646 80.751 108.689 80.8564 108.689 81.0146C108.689 81.1553 108.628 81.3223 108.505 81.5156ZM101.755 77.4551C101.544 77.4551 101.289 77.5605 100.99 77.7715C100.709 77.9824 100.428 78.29 100.146 78.6943C99.8652 79.0811 99.6016 79.5645 99.3555 80.1445C99.1094 80.707 98.9248 81.3574 98.8018 82.0957C99.0127 81.9375 99.2412 81.7793 99.4873 81.6211C99.7334 81.4453 99.9795 81.2607 100.226 81.0674C100.981 80.4873 101.509 79.9775 101.808 79.5381C102.106 79.0986 102.273 78.7207 102.309 78.4043C102.344 78.0703 102.309 77.833 102.203 77.6924C102.098 77.5342 101.948 77.4551 101.755 77.4551ZM110.324 86.1035C110.43 86.1738 110.562 86.209 110.72 86.209C110.896 86.209 111.062 86.1738 111.221 86.1035C111.396 86.0332 111.555 85.9365 111.695 85.8135C111.854 85.6904 111.968 85.5322 112.038 85.3389C112.108 85.1455 112.108 84.873 112.038 84.5215C111.968 84.1523 111.854 83.7656 111.695 83.3613C111.555 82.9395 111.396 82.5176 111.221 82.0957C111.045 81.6738 110.896 81.2871 110.772 80.9355C110.667 80.6719 110.579 80.4258 110.509 80.1973C110.438 80.0039 110.368 79.8193 110.298 79.6436C110.245 79.4502 110.201 79.3184 110.166 79.248C110.078 79.3887 109.92 79.6172 109.691 79.9336C109.48 80.25 109.243 80.584 108.979 80.9355C108.733 81.2695 108.496 81.5859 108.268 81.8848C108.039 82.166 107.881 82.3594 107.793 82.4648C107.652 82.623 107.512 82.7197 107.371 82.7549C107.248 82.7725 107.143 82.7461 107.055 82.6758C106.967 82.5879 106.914 82.4736 106.896 82.333C106.896 82.1748 106.967 81.9902 107.107 81.7793C107.213 81.6387 107.371 81.4189 107.582 81.1201C107.793 80.8037 108.004 80.4873 108.215 80.1709C108.426 79.8369 108.619 79.5469 108.795 79.3008C108.971 79.0371 109.067 78.8789 109.085 78.8262C109.12 78.6855 109.067 78.501 108.927 78.2725C108.804 78.0439 108.786 77.7803 108.874 77.4814C108.944 77.2354 109.103 76.9541 109.349 76.6377C109.595 76.3037 109.885 76.0049 110.219 75.7412C110.553 75.4775 110.896 75.2842 111.247 75.1611C111.599 75.0205 111.915 75.0205 112.196 75.1611C112.425 75.3018 112.609 75.46 112.75 75.6357C112.891 75.7939 112.943 75.9609 112.908 76.1367C112.873 76.2246 112.82 76.3389 112.75 76.4795C112.68 76.6201 112.574 76.7959 112.434 77.0068C112.293 77.2002 112.091 77.4551 111.827 77.7715C111.88 78.1758 111.95 78.5449 112.038 78.8789C112.144 79.2129 112.24 79.5029 112.328 79.749C112.434 80.0479 112.548 80.3203 112.671 80.5664C112.829 80.8828 112.996 81.208 113.172 81.542C113.348 81.876 113.506 82.21 113.646 82.5439C113.787 82.8604 113.901 83.1592 113.989 83.4404C114.077 83.7217 114.104 83.959 114.068 84.1523C114.016 84.4512 113.857 84.8115 113.594 85.2334C113.348 85.6553 113.031 86.0684 112.645 86.4727C112.275 86.8594 111.845 87.1934 111.353 87.4746C110.878 87.7559 110.377 87.8965 109.85 87.8965C109.48 87.8965 109.12 87.7822 108.769 87.5537C108.435 87.3252 108.145 87.0615 107.898 86.7627C107.67 86.4463 107.494 86.1387 107.371 85.8398C107.266 85.541 107.257 85.3125 107.345 85.1543C107.45 84.9434 107.547 84.7764 107.635 84.6533C107.723 84.5303 107.854 84.3896 108.03 84.2314C108.101 84.1787 108.188 84.1172 108.294 84.0469C108.382 83.9941 108.505 83.9414 108.663 83.8887C108.821 83.8359 109.006 83.7744 109.217 83.7041C109.393 84.249 109.551 84.6797 109.691 84.9961C109.832 85.2949 109.946 85.5322 110.034 85.708C110.14 85.9014 110.236 86.0332 110.324 86.1035ZM119.816 86.1035C119.922 86.1738 120.054 86.209 120.212 86.209C120.388 86.209 120.555 86.1738 120.713 86.1035C120.889 86.0332 121.047 85.9365 121.188 85.8135C121.346 85.6904 121.46 85.5322 121.53 85.3389C121.601 85.1455 121.601 84.873 121.53 84.5215C121.46 84.1523 121.346 83.7656 121.188 83.3613C121.047 82.9395 120.889 82.5176 120.713 82.0957C120.537 81.6738 120.388 81.2871 120.265 80.9355C120.159 80.6719 120.071 80.4258 120.001 80.1973C119.931 80.0039 119.86 79.8193 119.79 79.6436C119.737 79.4502 119.693 79.3184 119.658 79.248C119.57 79.3887 119.412 79.6172 119.184 79.9336C118.973 80.25 118.735 80.584 118.472 80.9355C118.226 81.2695 117.988 81.5859 117.76 81.8848C117.531 82.166 117.373 82.3594 117.285 82.4648C117.145 82.623 117.004 82.7197 116.863 82.7549C116.74 82.7725 116.635 82.7461 116.547 82.6758C116.459 82.5879 116.406 82.4736 116.389 82.333C116.389 82.1748 116.459 81.9902 116.6 81.7793C116.705 81.6387 116.863 81.4189 117.074 81.1201C117.285 80.8037 117.496 80.4873 117.707 80.1709C117.918 79.8369 118.111 79.5469 118.287 79.3008C118.463 79.0371 118.56 78.8789 118.577 78.8262C118.612 78.6855 118.56 78.501 118.419 78.2725C118.296 78.0439 118.278 77.7803 118.366 77.4814C118.437 77.2354 118.595 76.9541 118.841 76.6377C119.087 76.3037 119.377 76.0049 119.711 75.7412C120.045 75.4775 120.388 75.2842 120.739 75.1611C121.091 75.0205 121.407 75.0205 121.688 75.1611C121.917 75.3018 122.102 75.46 122.242 75.6357C122.383 75.7939 122.436 75.9609 122.4 76.1367C122.365 76.2246 122.312 76.3389 122.242 76.4795C122.172 76.6201 122.066 76.7959 121.926 77.0068C121.785 77.2002 121.583 77.4551 121.319 77.7715C121.372 78.1758 121.442 78.5449 121.53 78.8789C121.636 79.2129 121.732 79.5029 121.82 79.749C121.926 80.0479 122.04 80.3203 122.163 80.5664C122.321 80.8828 122.488 81.208 122.664 81.542C122.84 81.876 122.998 82.21 123.139 82.5439C123.279 82.8604 123.394 83.1592 123.481 83.4404C123.569 83.7217 123.596 83.959 123.561 84.1523C123.508 84.4512 123.35 84.8115 123.086 85.2334C122.84 85.6553 122.523 86.0684 122.137 86.4727C121.768 86.8594 121.337 87.1934 120.845 87.4746C120.37 87.7559 119.869 87.8965 119.342 87.8965C118.973 87.8965 118.612 87.7822 118.261 87.5537C117.927 87.3252 117.637 87.0615 117.391 86.7627C117.162 86.4463 116.986 86.1387 116.863 85.8398C116.758 85.541 116.749 85.3125 116.837 85.1543C116.942 84.9434 117.039 84.7764 117.127 84.6533C117.215 84.5303 117.347 84.3896 117.522 84.2314C117.593 84.1787 117.681 84.1172 117.786 84.0469C117.874 83.9941 117.997 83.9414 118.155 83.8887C118.313 83.8359 118.498 83.7744 118.709 83.7041C118.885 84.249 119.043 84.6797 119.184 84.9961C119.324 85.2949 119.438 85.5322 119.526 85.708C119.632 85.9014 119.729 86.0332 119.816 86.1035Z" fill="#2ECC71"/>
</g>
<g filter="url(#filter1_d)">
<path d="M65.5 62C53.3147 62 44.125 53.7687 44.125 42.8515C44.125 35.8065 46.4525 31.7969 48.919 27.5526C49.9036 25.8583 50.9212 24.1049 51.8136 22.0906C52.5633 20.3998 53.193 18.7143 53.7949 17.1104C56.1293 10.8829 58.3349 5 65.5 5C72.6963 5 74.7733 10.5734 76.9702 16.4755C77.5425 18.0098 78.1514 19.6484 78.8889 21.3357C79.7291 23.2648 80.7363 25.1417 81.7104 26.9578C84.2501 31.6945 86.875 36.5929 86.875 42.8516C86.8749 53.7688 77.6852 62 65.5 62ZM65.5 8.56246C61.0138 8.56246 59.5439 11.9232 57.1312 18.3611C56.5067 20.0276 55.8492 21.7775 55.0699 23.5344C54.0993 25.7262 53.0312 27.5649 51.9979 29.3426C49.6861 33.3261 47.6875 36.7651 47.6875 42.8516C47.6875 51.737 55.3448 58.4375 65.5 58.4375C75.6552 58.4375 83.3125 51.737 83.3125 42.8516C83.3125 37.4887 81.0094 33.1904 78.5707 28.6416C77.5635 26.7629 76.5215 24.8216 75.6239 22.7621C74.8586 21.0086 74.2253 19.3109 73.6322 17.7193C71.329 11.5353 70.021 8.56246 65.5 8.56246Z" fill="#2ECC71"/>
<path d="M65.5 51.3125C59.6065 51.3125 54.8125 46.5185 54.8125 40.625C54.8125 34.7316 59.6065 29.9375 65.5 29.9375C71.3934 29.9375 76.1875 34.7316 76.1875 40.625C76.1875 46.5185 71.3934 51.3125 65.5 51.3125ZM65.5 33.5C61.5704 33.5 58.375 36.6955 58.375 40.625C58.375 44.5546 61.5704 47.75 65.5 47.75C69.4295 47.75 72.625 44.5546 72.625 40.625C72.625 36.6955 69.4295 33.5 65.5 33.5Z" fill="#2ECC71"/>
</g>
<defs>
<filter id="filter0_d" x="0.0136719" y="63.4902" width="138.562" height="51.7197" filterUnits="userSpaceOnUse" color-interpolation-filters="sRGB">
<feFlood flood-opacity="0" result="BackgroundImageFix"/>
<feColorMatrix in="SourceAlpha" type="matrix" values="0 0 0 0 0 0 0 0 0 0 0 0 0 0 0 0 0 0 127 0"/>
<feOffset dx="5" dy="5"/>
<feGaussianBlur stdDeviation="5"/>
<feColorMatrix type="matrix" values="0 0 0 0 0 0 0 0 0 0 0 0 0 0 0 0 0 0 0.25 0"/>
<feBlend mode="normal" in2="BackgroundImageFix" result="effect1_dropShadow"/>
<feBlend mode="normal" in="SourceGraphic" in2="effect1_dropShadow" result="shape"/>
</filter>
<filter id="filter1_d" x="32" y="0" width="77" height="77" filterUnits="userSpaceOnUse" color-interpolation-filters="sRGB">
<feFlood flood-opacity="0" result="BackgroundImageFix"/>
<feColorMatrix in="SourceAlpha" type="matrix" values="0 0 0 0 0 0 0 0 0 0 0 0 0 0 0 0 0 0 127 0"/>
<feOffset dx="5" dy="5"/>
<feGaussianBlur stdDeviation="5"/>
<feColorMatrix type="matrix" values="0 0 0 0 0 0 0 0 0 0 0 0 0 0 0 0 0 0 0.25 0"/>
<feBlend mode="normal" in2="BackgroundImageFix" result="effect1_dropShadow"/>
<feBlend mode="normal" in="SourceGraphic" in2="effect1_dropShadow" result="shape"/>
</filter>
</defs>
</svg>
